<?xml version="1.0" encoding="UTF-8" standalone="no"?>
<!DOCTYPE svg PUBLIC "-//W3C//DTD SVG 1.1//EN" "http://www.w3.org/Graphics/SVG/1.1/DTD/svg11.dtd">
<svg width="100%" height="100%" viewBox="0 0 1024 1024" version="1.1" xmlns="http://www.w3.org/2000/svg" xmlns:xlink="http://www.w3.org/1999/xlink" xml:space="preserve" xmlns:serif="http://www.serif.com/" style="fill-rule:evenodd;clip-rule:evenodd;stroke-linejoin:round;stroke-miterlimit:2;">
    <g transform="matrix(1.0621,0,0,1.0621,-31.7939,-31.7939)">
        <g transform="matrix(1.0387,0,0,0.943576,-36.5891,557.151)">
            <path d="M945.445,105.271L945.445,224.247C945.445,327.672 869.282,411.514 775.329,411.514L280.97,411.514C187.017,411.514 110.854,327.672 110.854,224.247L110.854,105.271L945.445,105.271Z" style="fill:rgb(0,91,172);"/>
        </g>
        <g transform="matrix(1.0387,0,0,0.943576,-36.5891,268.187)">
            <rect x="110.854" y="105.271" width="834.592" height="306.243" style="fill:white;"/>
        </g>
        <g transform="matrix(1.0387,0,0,0.943576,-36.5891,-20.7767)">
            <path d="M775.329,105.271C869.282,105.271 945.445,189.113 945.445,292.538L945.445,411.514L110.854,411.514L110.854,292.538C110.854,189.113 187.017,105.271 280.97,105.271L775.329,105.271Z" style="fill:rgb(237,28,36);"/>
        </g>
    </g>
    <g transform="matrix(0.804812,0,0,0.804812,512,512)">
        <g transform="matrix(1,0,0,1,-400,-400)">
            <clipPath id="_clip1">
                <rect x="0" y="0" width="800" height="800"/>
            </clipPath>
            <g clip-path="url(#_clip1)">
                <g id="Icon-Set" transform="matrix(25,0,0,25,-5100,-16775)">
                    <g id="Page-1">
                        <g id="Icon-Set1" serif:id="Icon-Set">
                            <g transform="matrix(0.04,0,0,0.04,197.732,669.791)">
                                <circle cx="556.698" cy="430.218" r="359.19" style="fill:white;"/>
                            </g>
                            <path id="globe" d="M231.596,694.829C229.681,694.192 227.622,693.716 225.455,693.408C225.75,691.675 225.907,689.859 225.957,688L233.962,688C233.783,690.521 232.936,692.854 231.596,694.829ZM223.434,700.559C224.1,698.95 224.645,697.211 225.064,695.379C226.862,695.645 228.586,696.038 230.219,696.554C228.415,698.477 226.073,699.892 223.434,700.559ZM220.971,700.951C220.649,700.974 220.328,701 220,701C219.672,701 219.352,700.974 219.029,700.951C218.178,699.179 217.489,697.207 216.979,695.114C217.973,695.027 218.98,694.976 220,694.976C221.02,694.976 222.027,695.027 223.022,695.114C222.511,697.207 221.822,699.179 220.971,700.951ZM209.781,696.554C211.414,696.038 213.138,695.645 214.936,695.379C215.355,697.211 215.9,698.95 216.566,700.559C213.927,699.892 211.586,698.477 209.781,696.554ZM208.404,694.829C207.064,692.854 206.217,690.521 206.038,688L214.043,688C214.093,689.859 214.25,691.675 214.545,693.408C212.378,693.716 210.319,694.192 208.404,694.829ZM208.404,679.171C210.319,679.808 212.378,680.285 214.545,680.592C214.25,682.325 214.093,684.141 214.043,686L206.038,686C206.217,683.479 207.064,681.146 208.404,679.171ZM216.566,673.441C215.9,675.05 215.355,676.789 214.936,678.621C213.138,678.356 211.414,677.962 209.781,677.446C211.586,675.523 213.927,674.108 216.566,673.441ZM219.029,673.049C219.352,673.027 219.672,673 220,673C220.328,673 220.649,673.027 220.971,673.049C221.822,674.821 222.511,676.794 223.022,678.886C222.027,678.973 221.02,679.024 220,679.024C218.98,679.024 217.973,678.973 216.979,678.886C217.489,676.794 218.178,674.821 219.029,673.049ZM223.954,688C223.9,689.761 223.74,691.493 223.439,693.156C222.313,693.058 221.168,693 220,693C218.832,693 217.687,693.058 216.562,693.156C216.26,691.493 216.1,689.761 216.047,688L223.954,688ZM216.047,686C216.1,684.239 216.26,682.507 216.562,680.844C217.687,680.942 218.832,681 220,681C221.168,681 222.313,680.942 223.438,680.844C223.74,682.507 223.9,684.239 223.954,686L216.047,686ZM230.219,677.446C228.586,677.962 226.862,678.356 225.064,678.621C224.645,676.789 224.1,675.05 223.434,673.441C226.073,674.108 228.415,675.523 230.219,677.446ZM231.596,679.171C232.936,681.146 233.783,683.479 233.962,686L225.957,686C225.907,684.141 225.75,682.325 225.455,680.592C227.622,680.285 229.681,679.808 231.596,679.171ZM220,671C211.164,671 204,678.163 204,687C204,695.837 211.164,703 220,703C228.836,703 236,695.837 236,687C236,678.163 228.836,671 220,671Z" style="fill:rgb(0,91,172);"/>
                        </g>
                    </g>
                </g>
            </g>
        </g>
    </g>
</svg>
